<?xml version="1.0" encoding="UTF-8" standalone="no"?>
<!DOCTYPE svg PUBLIC "-//W3C//DTD SVG 1.1//EN" "http://www.w3.org/Graphics/SVG/1.1/DTD/svg11.dtd">
<svg width="100%" height="100%" viewBox="0 0 1296 432" version="1.1" xmlns="http://www.w3.org/2000/svg" xmlns:xlink="http://www.w3.org/1999/xlink" xml:space="preserve" xmlns:serif="http://www.serif.com/" style="fill-rule:evenodd;clip-rule:evenodd;stroke-linejoin:round;stroke-miterlimit:2;">
    <g transform="matrix(0.324228,0,0,0.324228,492.934,-9.92438)">
        <g transform="matrix(1,0,0,1,-3.08425,0)">
            <path d="M389.098,568.647L389.098,562.855L444.377,562.855L444.377,658.095L389.098,658.095L389.098,636.354C389.098,634.227 388.603,632.312 387.4,630.543L387.33,630.436C385.631,627.837 383.286,625.636 380.246,623.644L380.107,623.549C376.451,621.027 372.279,618.971 367.454,617.276L367.296,617.216C362.103,615.251 356.628,613.713 350.674,612.551L350.476,612.506C344.645,611.194 338.742,610.247 332.748,609.663L332.731,609.661C326.831,609.071 321.299,608.771 316.136,608.771C293.116,608.771 275.665,610.753 263.839,615.272C257.239,617.842 253.739,622.373 253.739,629.151C253.739,631.569 254.327,633.674 255.774,635.4C258.619,638.281 262.377,640.706 266.968,642.851C272.93,645.387 279.801,647.556 287.575,649.399C296.298,651.266 305.484,653.056 315.132,654.769C325.178,656.364 335.461,658.038 345.931,659.784C356.917,661.45 367.571,663.614 377.861,666.266C388.603,668.828 398.663,671.991 408.047,675.742C418.361,679.798 427.284,684.898 434.849,690.961C443.174,697.336 449.716,705.097 454.423,714.096C459.464,723.376 462.145,734.332 462.145,747.039C462.145,758.326 459.851,768.146 455.542,776.56C451.373,784.698 445.821,791.848 438.788,798.078L438.7,798.153C432.077,803.83 424.43,808.585 415.778,812.353C407.756,815.918 399.293,818.69 390.423,820.649C381.815,822.711 373.12,824.171 364.34,825.032C355.686,825.881 347.542,826.3 339.906,826.3C314.386,826.3 292.193,823.506 273.292,818.057L273.275,818.052C263.984,815.35 255.475,812.24 247.736,808.743L247.736,819.818L192.457,819.818L192.457,719.318L247.736,719.318L247.736,736.235C247.736,741.255 249.387,745.605 252.752,749.302C257.619,754.246 263.848,758.306 271.388,761.638C279.83,765.202 289.131,767.82 299.278,769.536C309.997,771.322 320.418,772.221 330.542,772.221C342.695,772.221 353.864,771.624 364.084,770.408C373.408,769.147 381.496,767.177 388.324,764.39C393.718,762.188 398.019,759.49 401.035,755.953C403.284,753.146 404.224,749.655 404.224,745.599C404.224,741.937 403.401,738.784 401.21,736.067L401.06,735.868C398.451,732.389 394.787,729.605 390.16,727.291L390.098,727.26C384.393,724.337 377.63,721.941 369.808,719.986L369.778,719.978C361.371,717.838 352.352,716.008 342.595,714.459L342.468,714.436C332.726,712.708 322.669,711.137 312.193,709.708L312.089,709.692C301.271,708.053 290.7,706.168 280.245,704.011L280.116,703.982C269.689,701.627 259.768,698.85 250.313,695.642L250.276,695.629C240.17,692.138 231.274,687.697 223.396,682.258L223.239,682.143C215.09,676.18 208.547,669.009 203.513,660.553L203.451,660.443C198.486,651.756 195.818,641.355 195.818,629.151C195.818,613.374 200.087,600.602 207.945,590.647C215.389,581.059 225.042,573.472 236.984,567.991C247.937,562.963 260.311,559.504 274.099,557.706C287.227,555.857 300.439,554.932 313.735,554.932C333.492,554.932 351.613,557.201 368.107,561.668C375.63,563.706 382.626,566.036 389.098,568.647Z" style="fill:rgb(159,193,49);"/>
        </g>
        <path d="M597.897,562.855C597.897,562.855 597.897,582.695 597.897,582.695C598.549,582.288 599.203,581.886 599.859,581.487C608.797,576.054 618.345,571.491 628.464,567.824C638.729,563.998 649.6,561.12 661.098,559.204L661.115,559.201C672.549,557.324 684.919,556.372 698.229,556.372C716.445,556.372 734.054,558.979 751.022,564.166C768.54,569.353 784.085,577.507 797.676,588.585C811.42,599.627 822.504,613.792 830.828,631.157C839.026,648.1 843.278,668.219 843.278,691.576C843.278,715.073 838.722,735.306 829.919,752.373L829.905,752.4C821.062,769.364 809.225,783.427 794.382,794.65L794.338,794.683C779.865,805.449 763.204,813.516 744.259,818.827L744.2,818.843C725.885,823.807 706.801,826.3 686.945,826.3C675.48,826.3 664.614,825.523 654.347,823.983C644.148,822.453 634.46,820.409 625.13,817.817L624.979,817.771C616.02,815.067 607.485,812.022 599.205,808.572L599.04,808.499C598.658,808.328 598.277,808.157 597.897,807.985L597.897,858.897L641.699,858.897L641.699,914.177L495.693,914.177L495.693,858.897L539.495,858.897L539.495,618.135L495.693,618.135L495.693,562.855L597.897,562.855ZM597.897,750.496C607.436,756.094 618.54,760.893 631.218,764.964C647.113,769.85 665.535,772.221 686.465,772.221C701.49,772.221 715.281,770.44 727.876,766.784C739.857,763.192 750.151,758.014 758.697,751.125C767.109,744.312 773.655,736.034 778.341,726.271C783.09,716.206 785.357,704.627 785.357,691.576C785.357,665.13 778.228,644.83 762.767,631.132C746.688,616.886 722.719,610.452 691.266,610.452C680.67,610.452 670.644,611.65 661.119,614.104L661.045,614.122C651.613,616.444 642.757,619.554 634.483,623.469C626.282,627.426 618.733,631.814 611.83,636.656C606.834,640.243 602.188,643.828 597.897,647.414L597.897,750.496Z" style="fill:rgb(159,193,49);"/>
        <path d="M916.645,626.988L902.927,623.33C909.088,601.766 923.45,584.78 946.576,572.831L946.597,572.82C967.568,562.075 996.014,556.372 1032.06,556.372C1049.89,556.372 1066.35,557.92 1081.46,560.976C1097.46,564.213 1111.2,569.414 1122.72,576.424C1135.24,583.947 1144.95,593.804 1151.88,605.903C1158.96,617.811 1162.7,632.248 1162.7,649.319L1162.7,764.298L1207.92,764.298L1207.92,819.818L1104.54,819.818L1104.54,801.429C1103.06,802.101 1101.56,802.777 1099.94,803.502L1099.84,803.544C1090.44,807.573 1080.28,811.271 1069.37,814.628C1058.44,817.993 1046.83,820.773 1034.55,822.959C1022.08,825.181 1009,826.3 995.328,826.3C979.669,826.3 965.494,824.698 952.793,821.566C939.276,818.233 927.831,813.243 918.31,806.709L918.234,806.655C908.201,799.573 900.462,790.889 894.927,780.61L894.901,780.561C889.4,770.149 886.534,758.193 886.534,744.638C886.534,723.356 893.608,706.036 907.332,692.511C919.728,680.295 936.691,670.414 958.424,663.225C978.769,656.391 1002.77,651.35 1030.45,648.182C1053.41,645.554 1078.08,643.516 1104.46,642.069C1104.14,637.87 1102.88,634.173 1100.49,631.039C1097.12,626.614 1092.51,623.084 1086.8,620.289C1080.08,616.994 1072.23,614.644 1063.18,613.113L1063.06,613.09C1053.64,611.323 1043.62,610.452 1033.02,610.452C1020.51,610.452 1009.56,611.242 1000.08,612.897L999.989,612.912C991.636,614.259 984.54,616.267 978.626,619.155L978.504,619.212C973.625,621.481 969.643,624.227 966.689,627.63C963.939,630.824 961.924,634.524 960.603,638.707L925.158,629.257L916.575,627.23C916.598,627.149 916.622,627.068 916.645,626.988ZM1104.54,695.571C1076.43,696.899 1052.29,698.967 1032.06,701.799L1032.02,701.805C1009.2,704.848 990.695,708.816 976.503,713.852L976.461,713.867C964.521,718.02 955.687,722.662 950.363,728.501C946.476,732.779 944.455,737.657 944.455,743.198C944.455,751.961 948.266,758.619 955.848,763.221C966.488,769.553 982.115,772.221 1002.53,772.221C1011.75,772.221 1021.56,771.178 1031.98,769.124L1032,769.121C1042.96,766.989 1053.54,764.329 1063.78,761.122C1073.82,757.819 1083.05,754.15 1091.44,750.1C1096.51,747.658 1100.88,745.275 1104.54,742.911L1104.54,695.571Z" style="fill:rgb(159,193,49);"/>
        <g transform="matrix(1,0,0,1,12.337,0)">
            <path d="M1344.8,590.91C1352.38,584.424 1360.47,578.798 1369.05,574.026C1378.83,568.518 1389.23,564.247 1400.18,561.239C1411.47,558.012 1423.58,556.372 1436.49,556.372C1443.13,556.372 1449.31,556.935 1455.02,558.025C1460.55,558.923 1465.47,559.977 1469.75,561.262C1477.52,563.593 1485.85,567.423 1485.85,567.423L1465.41,621.929C1465.41,621.929 1456.4,616.928 1449.46,614.899C1443.66,613.206 1438.14,612.372 1430.48,612.372C1420.12,612.372 1410.58,613.96 1401.8,617.253L1401.74,617.274C1392.79,620.539 1384.62,624.642 1377.19,629.638C1369.95,634.616 1363.48,640.153 1357.75,646.323L1357.69,646.383C1352.93,651.38 1348.63,656.143 1344.8,660.677C1344.8,660.677 1344.8,764.298 1344.8,764.298L1403.86,764.298L1403.86,819.818L1240.89,819.818L1240.89,764.298L1286.39,764.298L1286.39,618.135L1240.89,618.135L1240.89,562.855L1344.8,562.855L1344.8,590.91Z" style="fill:rgb(159,193,49);"/>
        </g>
        <g transform="matrix(1,0,0,1,6.1685,0)">
            <path d="M1804.85,739.458L1819.7,739.458L1818.12,744.492C1807.39,772.141 1789.09,792.768 1763.25,806.419L1763.23,806.427C1738.87,819.214 1708.85,825.82 1673.08,825.82C1650.53,825.82 1630.05,822.843 1611.56,816.966L1611.49,816.941C1592.65,810.721 1576.59,801.865 1563.22,790.455L1563.18,790.419C1549.6,778.647 1539.09,764.437 1531.66,747.775C1524.33,731.324 1520.59,712.922 1520.59,692.537C1520.59,672.585 1524.51,654.353 1532.23,637.814C1539.98,621.074 1550.78,606.765 1564.64,594.878C1578.28,583.017 1594.47,573.852 1613.19,567.484C1631.58,561.067 1651.7,557.813 1673.56,557.813C1696.3,557.813 1716.69,561.095 1734.74,567.518C1753.41,574.158 1769.17,583.811 1782.1,596.369C1795.09,608.826 1805.04,623.965 1811.9,641.832C1818.56,659.187 1821.97,678.722 1821.97,700.46L1821.97,719.937C1821.97,719.937 1582.8,719.937 1582.8,719.936C1584.05,724.161 1585.66,728.171 1587.68,732.021C1591.99,739.94 1597.86,746.683 1605.28,752.275C1613.11,758.181 1622.48,762.656 1633.33,765.817C1644.97,769.163 1658.23,770.781 1673.08,770.781C1687.58,770.781 1700.16,769.645 1710.84,767.273L1710.86,767.268C1721.07,765.031 1729.69,762.095 1736.74,758.292L1736.79,758.264C1743.33,754.8 1748.65,750.963 1752.7,746.517L1752.78,746.435C1756.79,742.17 1758.38,739.458 1758.38,739.458L1774.83,739.458C1774.85,739.424 1774.87,739.39 1774.88,739.356L1804.89,739.356C1804.88,739.39 1804.87,739.424 1804.85,739.458ZM1760.13,665.617C1759.13,661.788 1757.86,658.05 1756.3,654.404C1752.96,646.559 1747.91,639.696 1741.17,633.73L1741.11,633.679C1734.11,627.346 1725.23,622.45 1714.51,618.787L1714.44,618.76C1703.11,614.746 1689.47,612.853 1673.56,612.853C1658.68,612.853 1645.51,614.774 1634,618.805L1633.92,618.83C1622.93,622.54 1613.55,627.562 1605.8,634.069L1605.74,634.117C1598.29,640.231 1592.42,647.324 1588.17,655.433C1586.43,658.751 1584.94,662.146 1583.7,665.617L1760.13,665.617Z" style="fill:rgb(159,193,49);"/>
        </g>
    </g>
    <g id="spare-logo" transform="matrix(0.166667,0,0,0.166667,234,126)">
        <g transform="matrix(0.842049,0,0,0.842049,-167.321,-167.321)">
            <path d="M198.707,840.018L198.707,839.982C198.707,648.821 221.566,476.652 221.566,476.652L221.572,476.646L229.723,445.409L240.707,415.025L254.425,385.773L270.762,357.9L289.909,333.612L310.902,310.902L333.612,289.909L357.9,270.762L385.773,254.425L415.025,240.707L445.409,229.723L476.67,221.566C476.67,221.566 648.839,198.707 840,198.707C1031.16,198.707 1203.33,221.566 1203.33,221.566L1234.59,229.723L1264.98,240.707L1294.23,254.425L1322.1,270.762L1346.39,289.909L1369.1,310.902L1390.09,333.612L1409.24,357.9L1425.58,385.773L1439.29,415.025L1450.28,445.409L1458.43,476.646L1458.43,476.652C1458.43,476.652 1481.29,648.821 1481.29,839.982L1481.29,840.018C1481.29,1031.18 1458.43,1203.35 1458.43,1203.35L1458.43,1203.35L1450.28,1234.59L1439.29,1264.98L1425.58,1294.23L1409.24,1322.1L1390.09,1346.39L1369.1,1369.1L1346.39,1390.09L1322.1,1409.24L1294.23,1425.58L1264.98,1439.29L1234.59,1450.28L1203.33,1458.43C1203.33,1458.43 1031.16,1481.29 840,1481.29C648.839,1481.29 476.67,1458.43 476.67,1458.43L445.409,1450.28L415.025,1439.29L385.773,1425.58L357.9,1409.24L333.612,1390.09L310.902,1369.1L289.909,1346.39L270.762,1322.1L254.425,1294.23L240.707,1264.98L229.723,1234.59L221.572,1203.35L221.566,1203.35C221.566,1203.35 198.707,1031.18 198.707,840.018Z" style="fill:rgb(245,245,245);"/>
        </g>
        <g id="_-" serif:id="&gt;" transform="matrix(1.42283,0,0,1.42283,-220.999,-348.169)">
            <path d="M197.493,677.709L326.291,624.742L197.493,571.775L197.493,436.807L502.625,570.46L502.625,677.994L197.493,811.647L197.493,677.709Z" style="fill:url(#_Linear1);"/>
        </g>
        <g id="S" transform="matrix(1.87875,0,0,1.87875,158.93,-643.822)">
            <path d="M458.32,703.341C458.32,781.323 401.168,835.922 316.616,835.922C252.89,835.922 205.491,803.703 179.103,742.503L170.814,723.282L259.461,680.237L268.93,700.2C281.868,727.474 296.336,740.271 316.616,740.271C339.884,740.271 359.068,729.857 359.068,710.064C359.068,694.745 350.018,685.918 338.306,678.789C326.993,671.903 313.372,666.566 299.55,660.984C244.963,639.036 190.519,613.288 190.519,536.473C190.519,473.75 244.811,424.301 319.257,424.301C370.572,424.301 416.174,449.891 442.256,493.551L453.195,511.861L370.992,563.937L359.214,545.718C348.327,528.877 332.978,518.751 316.136,518.751C302.38,518.751 289.771,524.306 289.771,535.992C289.771,543.617 294.638,548.476 300.837,552.828C311.968,560.644 327.172,566.337 343.084,572.507L343.148,572.532C398.987,594.589 458.32,621.537 458.32,703.341Z" style="fill:url(#_Linear2);"/>
        </g>
    </g>
    <defs>
        <linearGradient id="_Linear1" x1="0" y1="0" x2="1" y2="0" gradientUnits="userSpaceOnUse" gradientTransform="matrix(305.132,0,0,374.84,197.493,624.227)"><stop offset="0" style="stop-color:rgb(204,219,30);stop-opacity:1"/><stop offset="1" style="stop-color:rgb(181,204,57);stop-opacity:1"/></linearGradient>
        <linearGradient id="_Linear2" x1="0" y1="0" x2="1" y2="0" gradientUnits="userSpaceOnUse" gradientTransform="matrix(287.506,0,0,411.621,170.814,630.111)"><stop offset="0" style="stop-color:rgb(181,204,57);stop-opacity:1"/><stop offset="1" style="stop-color:rgb(159,193,49);stop-opacity:1"/></linearGradient>
    </defs>
</svg>
