<?xml version="1.0" encoding="UTF-8" standalone="no"?>
<!DOCTYPE svg PUBLIC "-//W3C//DTD SVG 1.1//EN" "http://www.w3.org/Graphics/SVG/1.1/DTD/svg11.dtd">
<svg width="100%" height="100%" viewBox="0 0 1080 1080" version="1.1" xmlns="http://www.w3.org/2000/svg" xmlns:xlink="http://www.w3.org/1999/xlink" xml:space="preserve" xmlns:serif="http://www.serif.com/" style="fill-rule:evenodd;clip-rule:evenodd;stroke-linejoin:round;stroke-miterlimit:2;">
    <g id="spare-logo">
        <g transform="matrix(0.842049,0,0,0.842049,-167.321,-167.321)">
            <path d="M198.707,840.018L198.707,839.982C198.707,648.821 221.566,476.652 221.566,476.652L221.572,476.646L229.723,445.409L240.707,415.025L254.425,385.773L270.762,357.9L289.909,333.612L310.902,310.902L333.612,289.909L357.9,270.762L385.773,254.425L415.025,240.707L445.409,229.723L476.67,221.566C476.67,221.566 648.839,198.707 840,198.707C1031.16,198.707 1203.33,221.566 1203.33,221.566L1234.59,229.723L1264.98,240.707L1294.23,254.425L1322.1,270.762L1346.39,289.909L1369.1,310.902L1390.09,333.612L1409.24,357.9L1425.58,385.773L1439.29,415.025L1450.28,445.409L1458.43,476.646L1458.43,476.652C1458.43,476.652 1481.29,648.821 1481.29,839.982L1481.29,840.018C1481.29,1031.18 1458.43,1203.35 1458.43,1203.35L1458.43,1203.35L1450.28,1234.59L1439.29,1264.98L1425.58,1294.23L1409.24,1322.1L1390.09,1346.39L1369.1,1369.1L1346.39,1390.09L1322.1,1409.24L1294.23,1425.58L1264.98,1439.29L1234.59,1450.28L1203.33,1458.43C1203.33,1458.43 1031.16,1481.29 840,1481.29C648.839,1481.29 476.67,1458.43 476.67,1458.43L445.409,1450.28L415.025,1439.29L385.773,1425.58L357.9,1409.24L333.612,1390.09L310.902,1369.1L289.909,1346.39L270.762,1322.1L254.425,1294.23L240.707,1264.98L229.723,1234.59L221.572,1203.35L221.566,1203.35C221.566,1203.35 198.707,1031.18 198.707,840.018Z" style="fill:rgb(245,245,245);"/>
        </g>
        <g id="_-" serif:id="&gt;" transform="matrix(1.42283,0,0,1.42283,-220.999,-348.169)">
            <path d="M197.493,677.709L326.291,624.742L197.493,571.775L197.493,436.807L502.625,570.46L502.625,677.994L197.493,811.647L197.493,677.709Z" style="fill:url(#_Linear1);"/>
        </g>
        <g id="S" transform="matrix(1.87875,0,0,1.87875,158.93,-643.822)">
            <path d="M458.32,703.341C458.32,781.323 401.168,835.922 316.616,835.922C252.89,835.922 205.491,803.703 179.103,742.503L170.814,723.282L259.461,680.237L268.93,700.2C281.868,727.474 296.336,740.271 316.616,740.271C339.884,740.271 359.068,729.857 359.068,710.064C359.068,694.745 350.018,685.918 338.306,678.789C326.993,671.903 313.372,666.566 299.55,660.984C244.963,639.036 190.519,613.288 190.519,536.473C190.519,473.75 244.811,424.301 319.257,424.301C370.572,424.301 416.174,449.891 442.256,493.551L453.195,511.861L370.992,563.937L359.214,545.718C348.327,528.877 332.978,518.751 316.136,518.751C302.38,518.751 289.771,524.306 289.771,535.992C289.771,543.617 294.638,548.476 300.837,552.828C311.968,560.644 327.172,566.337 343.084,572.507L343.148,572.532C398.987,594.589 458.32,621.537 458.32,703.341Z" style="fill:url(#_Linear2);"/>
        </g>
    </g>
    <defs>
        <linearGradient id="_Linear1" x1="0" y1="0" x2="1" y2="0" gradientUnits="userSpaceOnUse" gradientTransform="matrix(305.132,0,0,374.84,197.493,624.227)"><stop offset="0" style="stop-color:rgb(204,219,30);stop-opacity:1"/><stop offset="1" style="stop-color:rgb(181,204,57);stop-opacity:1"/></linearGradient>
        <linearGradient id="_Linear2" x1="0" y1="0" x2="1" y2="0" gradientUnits="userSpaceOnUse" gradientTransform="matrix(287.506,0,0,411.621,170.814,630.111)"><stop offset="0" style="stop-color:rgb(181,204,57);stop-opacity:1"/><stop offset="1" style="stop-color:rgb(159,193,49);stop-opacity:1"/></linearGradient>
    </defs>
</svg>
